<svg t="1730950691971" class="icon" viewBox="0 0 1129 1024" version="1.1" xmlns="http://www.w3.org/2000/svg" p-id="4395" width="32" height="32"><path d="M95.611662 29.944147h938.749013a65.517794 65.517794 0 0 1 56.744159 98.276691l-117.351113 203.230927-117.336141 203.230926-117.351112 203.230927-117.336141 203.245899a65.532766 65.532766 0 0 1-113.473345 0L390.920841 737.913618l-117.336141-203.230927-117.351112-203.230926L38.897447 128.220838A65.517794 65.517794 0 0 1 95.626634 29.944147m0-29.944147A95.461941 95.461941 0 0 0 12.965816 143.192912l117.33614 203.230926 117.351113 203.230927 117.336141 203.230927 117.351112 203.245898a95.476913 95.476913 0 0 0 165.336609 0l117.33614-203.245898 117.351113-203.230927 117.336141-203.230927L1117.066409 143.192912A95.461941 95.461941 0 0 0 1034.390619 0h-938.749013z"  p-id="4396"></path><path d="M565.734772 781.437436m-118.279381 0a118.279381 118.279381 0 1 0 236.558762 0 118.279381 118.279381 0 1 0-236.558762 0Z"  p-id="4397"></path><path d="M1001.287364 899.716817m-118.279381 0a118.279381 118.279381 0 1 0 236.558763 0 118.279381 118.279381 0 1 0-236.558763 0Z"  p-id="4398"></path><path d="M1001.287364 1024a124.268211 124.268211 0 1 1 124.268211-124.268211 124.402959 124.402959 0 0 1-124.268211 124.268211z m0-236.558762a112.290552 112.290552 0 1 0 112.290552 112.290551 112.4253 112.4253 0 0 0-112.290552-112.290551z"  p-id="4399"></path><path d="M209.444337 161.698395m-118.279381 0a118.279381 118.279381 0 1 0 236.558762 0 118.279381 118.279381 0 1 0-236.558762 0Z"  p-id="4400"></path><path d="M445.913267 161.698395m-118.279381 0a118.279381 118.279381 0 1 0 236.558762 0 118.279381 118.279381 0 1 0-236.558762 0Z"  p-id="4401"></path><path d="M683.969237 161.698395m-118.279381 0a118.279381 118.279381 0 1 0 236.558762 0 118.279381 118.279381 0 1 0-236.558762 0Z"  p-id="4402"></path><path d="M920.528 161.698395m-118.279382 0a118.279381 118.279381 0 1 0 236.558763 0 118.279381 118.279381 0 1 0-236.558763 0Z"  p-id="4403"></path><path d="M328.427406 368.732228m-118.279381 0a118.279381 118.279381 0 1 0 236.558762 0 118.279381 118.279381 0 1 0-236.558762 0Z"  p-id="4404"></path><path d="M564.986168 368.732228m-118.279381 0a118.279381 118.279381 0 1 0 236.558763 0 118.279381 118.279381 0 1 0-236.558763 0Z"  p-id="4405"></path><path d="M801.544931 368.732228m-118.279381 0a118.279381 118.279381 0 1 0 236.558762 0 118.279381 118.279381 0 1 0-236.558762 0Z"  p-id="4406"></path><path d="M446.706787 575.077346m-118.279381 0a118.279381 118.279381 0 1 0 236.558762 0 118.279381 118.279381 0 1 0-236.558762 0Z"  p-id="4407"></path><path d="M684.762757 575.077346m-118.279381 0a118.279381 118.279381 0 1 0 236.558762 0 118.279381 118.279381 0 1 0-236.558762 0Z"  p-id="4408"></path><path d="M575.46662 741.731497v64.799134h-13.310174v-49.901921a23.521128 23.521128 0 0 1-6.722461 3.832851 30.318449 30.318449 0 0 1-7.815422 2.111062v-11.348831a58.690528 58.690528 0 0 0 19.463696-9.492295zM440.508349 589.166067h26.949732v11.004474h-42.161359v-4.701231a21.979004 21.979004 0 0 1 1.826593-8.983244 28.297219 28.297219 0 0 1 5.015645-7.635757 60.696786 60.696786 0 0 1 9.89654-8.294529 38.927391 38.927391 0 0 0 8.608942-8.129836 12.980788 12.980788 0 0 0 2.455421-7.486037q0-8.549054-9.342574-8.549054c-5.449835 0-10.675088 2.185923-15.630845 6.542796v-11.783022a33.642249 33.642249 0 0 1 18.670176-5.360002q9.477323 0 14.972073 4.850952a16.858555 16.858555 0 0 1 5.509723 13.235313 22.038892 22.038892 0 0 1-1.58704 8.564026 25.572302 25.572302 0 0 1-4.62637 7.186595 60.562038 60.562038 0 0 1-9.701904 8.069948 55.681142 55.681142 0 0 0-8.638886 7.081791 7.081791 7.081791 0 0 0-2.215867 4.386817zM665.373922 586.381262a24.120011 24.120011 0 0 0 14.822353 4.746147 13.804252 13.804252 0 0 0 8.519109-2.38056 7.950171 7.950171 0 0 0 3.144136-6.752405 7.65073 7.65073 0 0 0-3.743019-6.872182 19.463696 19.463696 0 0 0-10.480451-2.38056h-5.644472v-10.195982h5.19531q12.786151 0 12.771178-8.59397 0-8.099892-9.791736-8.099892a21.484926 21.484926 0 0 0-12.396877 4.177209v-10.929614a32.938562 32.938562 0 0 1 15.436208-3.398661 23.955318 23.955318 0 0 1 14.612744 4.147265 13.474866 13.474866 0 0 1 5.614528 11.528496q0 12.441793-12.621458 15.645817v0.194637a16.798667 16.798667 0 0 1 10.6152 4.850952 13.924028 13.924028 0 0 1 3.967599 10.016317 16.768722 16.768722 0 0 1-6.617656 14.118666q-6.602684 5.075533-17.622131 5.075533-9.791736 0-15.765593-3.233968zM337.021376 328.801708v40.28985h8.983244v9.612071h-8.983244v13.474866h-11.977659v-13.474866h-28.327163v-9.701904a222.095739 222.095739 0 0 0 16.469281-20.79621 130.915811 130.915811 0 0 0 11.633301-19.463696z m-28.656549 40.28985h16.67889v-23.251631a91.075124 91.075124 0 0 1-5.629499 8.983245q-3.668158 5.180337-11.004474 14.268386zM546.211188 392.178495v-11.423692a26.560459 26.560459 0 0 0 14.043805 4.012516 12.935872 12.935872 0 0 0 8.788607-2.769834 9.402462 9.402462 0 0 0 3.17408-7.486037q0-9.851624-13.474866-9.866596a103.307308 103.307308 0 0 0-11.498553 0.748604l2.38056-35.004708h33.567389v10.884697H560.254993l-0.898324 13.340118a80.100594 80.100594 0 0 1 6.273299-0.28447q9.282686 0 14.672632 5.075533a18.056321 18.056321 0 0 1 5.374974 13.759336 20.496769 20.496769 0 0 1-6.49788 15.660789q-6.512852 6.078662-17.696991 6.078662a37.894318 37.894318 0 0 1-15.271515-2.724918zM819.945609 342.24663a20.960903 20.960903 0 0 0-10.480451-2.73989 14.028833 14.028833 0 0 0-11.738106 5.749277 23.790625 23.790625 0 0 0-4.40179 14.882241h0.254526a14.972074 14.972074 0 0 1 13.474866-6.962014 15.870398 15.870398 0 0 1 12.681346 5.464806 21.125596 21.125596 0 0 1 4.686259 14.22347 21.694535 21.694535 0 0 1-6.108606 15.825482 20.960903 20.960903 0 0 1-15.6009 6.243355q-10.89967 0-16.67889-7.860339t-5.794193-21.529842q0-16.109951 7.486037-26.14124t20.960903-10.046262a30.438226 30.438226 0 0 1 11.33386 1.706817z m-26.201128 30.737667a14.028833 14.028833 0 0 0 2.45542 8.354417 7.620785 7.620785 0 0 0 6.467935 3.443577 7.486037 7.486037 0 0 0 6.393076-3.159108 12.875983 12.875983 0 0 0 2.335643-7.890282q0-10.690061-8.803579-10.690061a8.025031 8.025031 0 0 0-6.408047 2.829722 10.480452 10.480452 0 0 0-2.440448 7.111735zM231.737755 131.439834q-7.695646 13.804252-11.483581 22.233529a131.754247 131.754247 0 0 0-6.153522 16.469281 118.503962 118.503962 0 0 0-3.653186 16.693862h-14.163581a117.500833 117.500833 0 0 1 7.231511-25.108167 185.12969 185.12969 0 0 1 14.313302-27.413867h-30.25856v-10.884697h44.212533zM423.574933 169.723426a15.96023 15.96023 0 0 1 3.204024-9.82168 18.250958 18.250958 0 0 1 9.252742-6.303243 19.598444 19.598444 0 0 1-7.486037-6.13855 13.953973 13.953973 0 0 1-2.650057-8.279557 15.061906 15.061906 0 0 1 2.605141-8.608942 17.412522 17.412522 0 0 1 7.261455-6.06369 24.374536 24.374536 0 0 1 10.480452-2.185923 25.183028 25.183028 0 0 1 10.480451 2.141007 17.337661 17.337661 0 0 1 7.336316 5.988829 14.972074 14.972074 0 0 1 2.620113 8.534082 13.474866 13.474866 0 0 1-2.88961 8.23464 19.658333 19.658333 0 0 1-7.755534 5.98883 19.373863 19.373863 0 0 1 9.252741 6.318215 15.96023 15.96023 0 0 1 3.308829 10.016317 16.139895 16.139895 0 0 1-6.258327 13.145481q-6.258327 5.075533-16.259672 5.075533t-16.2447-5.075533a16.020119 16.020119 0 0 1-6.258327-12.965816z m13.235314-1.182794a9.836652 9.836652 0 0 0 2.53028 7.081791 9.881569 9.881569 0 0 0 13.474866 0 10.585256 10.585256 0 0 0 0-13.983917 9.537211 9.537211 0 0 0-13.474866 0 9.67196 9.67196 0 0 0-2.53028 6.902126z m1.961341-27.997777a8.788607 8.788607 0 0 0 2.141007 5.988829 6.872182 6.872182 0 0 0 5.434862 2.485364 7.036875 7.036875 0 0 0 5.360003-2.410504 8.638886 8.638886 0 0 0 2.215867-5.988829 8.983244 8.983244 0 0 0-2.155979-6.108606 6.872182 6.872182 0 0 0-5.419891-2.500336 6.797321 6.797321 0 0 0-5.464806 2.500336 9.132965 9.132965 0 0 0-2.051175 6.033746zM665.239173 174.469573a21.529842 21.529842 0 0 0 11.977659 3.278884q15.361347 0 15.690733-19.972746l-0.254525-0.089832q-4.177209 6.437992-12.890956 6.437992a16.873527 16.873527 0 0 1-12.995759-5.55464 19.867942 19.867942 0 0 1-5.105478-13.983916 21.799339 21.799339 0 0 1 6.153523-16.080008 21.499898 21.499898 0 0 1 16.005146-6.183466 19.044478 19.044478 0 0 1 16.124924 7.815423q5.854081 7.815422 5.85408 21.814311 0 16.633974-7.066818 26.290961t-20.317104 9.656987a33.372752 33.372752 0 0 1-13.145481-2.410503z m9.372518-31.067052a11.812966 11.812966 0 0 0 2.440448 7.905255 8.264585 8.264585 0 0 0 6.647601 2.859666 7.905255 7.905255 0 0 0 6.198438-2.73989 9.836652 9.836652 0 0 0 2.440448-6.797321 14.972074 14.972074 0 0 0-2.440448-8.51911 7.486037 7.486037 0 0 0-6.527824-3.638214 7.605813 7.605813 0 0 0-6.363131 3.144135 12.486709 12.486709 0 0 0-2.395532 7.785479zM904.462965 121.992455v64.799135h-13.310174V136.889669a23.521128 23.521128 0 0 1-6.722461 3.832851 30.318449 30.318449 0 0 1-7.815422 2.111062v-11.348832a58.974998 58.974998 0 0 0 19.463695-9.492295zM923.717051 156.128783q0-16.469281 6.06369-25.138111t17.517326-8.668831q21.874199 0 21.859227 32.339679 0 15.915314-5.988829 24.584145t-17.157996 8.653858q-22.278445 0-22.293418-31.77074z m13.385034-0.314413q0 21.934088 9.38749 21.934087t9.207825-22.592859q0-22.682691-8.983244-22.682691-9.597099 0-9.612071 23.341463z"  p-id="4409"></path></svg>